<mxfile host="app.diagrams.net" modified="2021-04-15T09:50:41.983Z" agent="5.0 (Windows)" etag="QZNRlbpqrdb20Yt6jrsV" version="14.6.0" type="github">
  <diagram id="qpjzLQUcUfgUFBdWW8Xe" name="Page-1">
    <mxGraphModel dx="868" dy="451" grid="1" gridSize="10" guides="1" tooltips="1" connect="1" arrows="1" fold="1" page="1" pageScale="1" pageWidth="827" pageHeight="1169" math="0" shadow="0">
      <root>
        <mxCell id="0" />
        <mxCell id="1" parent="0" />
        <mxCell id="klf8gY02cnG4Vqw1rbdI-47" value="" style="whiteSpace=wrap;html=1;aspect=fixed;fillColor=none;" vertex="1" parent="1">
          <mxGeometry x="240" y="10" width="400" height="400" as="geometry" />
        </mxCell>
        <mxCell id="klf8gY02cnG4Vqw1rbdI-2" value="Privatpersonen" style="shape=umlActor;verticalLabelPosition=bottom;verticalAlign=top;html=1;outlineConnect=0;" vertex="1" parent="1">
          <mxGeometry x="100" y="210" width="30" height="60" as="geometry" />
        </mxCell>
        <mxCell id="klf8gY02cnG4Vqw1rbdI-3" value="Geschäftskunden" style="shape=umlActor;verticalLabelPosition=bottom;verticalAlign=top;html=1;outlineConnect=0;" vertex="1" parent="1">
          <mxGeometry x="100" y="330" width="30" height="60" as="geometry" />
        </mxCell>
        <mxCell id="klf8gY02cnG4Vqw1rbdI-4" value="Kundenberater" style="shape=umlActor;verticalLabelPosition=bottom;verticalAlign=top;html=1;outlineConnect=0;" vertex="1" parent="1">
          <mxGeometry x="710" y="60" width="30" height="60" as="geometry" />
        </mxCell>
        <mxCell id="klf8gY02cnG4Vqw1rbdI-5" value="Informationsanfragen" style="ellipse;whiteSpace=wrap;html=1;" vertex="1" parent="1">
          <mxGeometry x="292.5" y="270" width="120" height="40" as="geometry" />
        </mxCell>
        <mxCell id="klf8gY02cnG4Vqw1rbdI-6" value="" style="endArrow=none;html=1;exitX=1;exitY=0.3333333333333333;exitDx=0;exitDy=0;exitPerimeter=0;entryX=0;entryY=0.5;entryDx=0;entryDy=0;" edge="1" parent="1" source="klf8gY02cnG4Vqw1rbdI-2" target="klf8gY02cnG4Vqw1rbdI-5">
          <mxGeometry width="50" height="50" relative="1" as="geometry">
            <mxPoint x="390" y="260" as="sourcePoint" />
            <mxPoint x="440" y="210" as="targetPoint" />
            <Array as="points" />
          </mxGeometry>
        </mxCell>
        <mxCell id="klf8gY02cnG4Vqw1rbdI-7" value="" style="endArrow=none;html=1;exitX=1;exitY=0.3333333333333333;exitDx=0;exitDy=0;exitPerimeter=0;entryX=0;entryY=0.5;entryDx=0;entryDy=0;" edge="1" parent="1" source="klf8gY02cnG4Vqw1rbdI-3" target="klf8gY02cnG4Vqw1rbdI-5">
          <mxGeometry width="50" height="50" relative="1" as="geometry">
            <mxPoint x="150" y="180" as="sourcePoint" />
            <mxPoint x="250" y="140" as="targetPoint" />
            <Array as="points" />
          </mxGeometry>
        </mxCell>
        <mxCell id="klf8gY02cnG4Vqw1rbdI-9" value="neue Interessenten gewinnen" style="ellipse;whiteSpace=wrap;html=1;" vertex="1" parent="1">
          <mxGeometry x="480" y="170" width="120" height="50" as="geometry" />
        </mxCell>
        <mxCell id="klf8gY02cnG4Vqw1rbdI-10" value="sich ausgewählte Workshops anmelden" style="ellipse;whiteSpace=wrap;html=1;" vertex="1" parent="1">
          <mxGeometry x="260" y="30" width="185" height="50" as="geometry" />
        </mxCell>
        <mxCell id="klf8gY02cnG4Vqw1rbdI-13" value="potenzielle Kunden" style="shape=umlActor;verticalLabelPosition=bottom;verticalAlign=top;html=1;outlineConnect=0;" vertex="1" parent="1">
          <mxGeometry x="100" y="70" width="30" height="60" as="geometry" />
        </mxCell>
        <mxCell id="klf8gY02cnG4Vqw1rbdI-15" value="Platz reservieren" style="ellipse;whiteSpace=wrap;html=1;" vertex="1" parent="1">
          <mxGeometry x="275" y="90" width="157.5" height="50" as="geometry" />
        </mxCell>
        <mxCell id="klf8gY02cnG4Vqw1rbdI-16" value="Seminarplätze buchen" style="ellipse;whiteSpace=wrap;html=1;" vertex="1" parent="1">
          <mxGeometry x="293.75" y="330" width="120" height="40" as="geometry" />
        </mxCell>
        <mxCell id="klf8gY02cnG4Vqw1rbdI-17" value="" style="endArrow=none;html=1;exitX=1;exitY=0.3333333333333333;exitDx=0;exitDy=0;exitPerimeter=0;entryX=0;entryY=0.5;entryDx=0;entryDy=0;" edge="1" parent="1" source="klf8gY02cnG4Vqw1rbdI-3" target="klf8gY02cnG4Vqw1rbdI-16">
          <mxGeometry width="50" height="50" relative="1" as="geometry">
            <mxPoint x="390" y="230" as="sourcePoint" />
            <mxPoint x="440" y="180" as="targetPoint" />
          </mxGeometry>
        </mxCell>
        <mxCell id="klf8gY02cnG4Vqw1rbdI-18" value="Buchung stornieren" style="ellipse;whiteSpace=wrap;html=1;" vertex="1" parent="1">
          <mxGeometry x="480" y="100" width="120" height="40" as="geometry" />
        </mxCell>
        <mxCell id="klf8gY02cnG4Vqw1rbdI-19" value="Kundebetreuer" style="shape=umlActor;verticalLabelPosition=bottom;verticalAlign=top;html=1;outlineConnect=0;" vertex="1" parent="1">
          <mxGeometry x="710" y="190" width="30" height="60" as="geometry" />
        </mxCell>
        <mxCell id="klf8gY02cnG4Vqw1rbdI-20" value="organisatorische Aufgaben" style="ellipse;whiteSpace=wrap;html=1;" vertex="1" parent="1">
          <mxGeometry x="480" y="50" width="120" height="40" as="geometry" />
        </mxCell>
        <mxCell id="klf8gY02cnG4Vqw1rbdI-25" value="Seminarbetreuer" style="shape=umlActor;verticalLabelPosition=bottom;verticalAlign=top;html=1;outlineConnect=0;" vertex="1" parent="1">
          <mxGeometry x="710" y="320" width="30" height="60" as="geometry" />
        </mxCell>
        <mxCell id="klf8gY02cnG4Vqw1rbdI-28" value="Unterstützung bei den Seminäre" style="ellipse;whiteSpace=wrap;html=1;" vertex="1" parent="1">
          <mxGeometry x="480" y="330" width="120" height="50" as="geometry" />
        </mxCell>
        <mxCell id="klf8gY02cnG4Vqw1rbdI-35" value="verbindlich buchen" style="ellipse;whiteSpace=wrap;html=1;fillColor=none;" vertex="1" parent="1">
          <mxGeometry x="272.5" y="160" width="160" height="50" as="geometry" />
        </mxCell>
        <mxCell id="klf8gY02cnG4Vqw1rbdI-36" value="" style="endArrow=none;html=1;exitX=1;exitY=0.3333333333333333;exitDx=0;exitDy=0;exitPerimeter=0;entryX=0;entryY=0.5;entryDx=0;entryDy=0;" edge="1" parent="1" source="klf8gY02cnG4Vqw1rbdI-13" target="klf8gY02cnG4Vqw1rbdI-10">
          <mxGeometry width="50" height="50" relative="1" as="geometry">
            <mxPoint x="390" y="260" as="sourcePoint" />
            <mxPoint x="440" y="210" as="targetPoint" />
          </mxGeometry>
        </mxCell>
        <mxCell id="klf8gY02cnG4Vqw1rbdI-39" value="" style="endArrow=none;html=1;entryX=0;entryY=0.5;entryDx=0;entryDy=0;exitX=1;exitY=0.3333333333333333;exitDx=0;exitDy=0;exitPerimeter=0;" edge="1" parent="1" source="klf8gY02cnG4Vqw1rbdI-13" target="klf8gY02cnG4Vqw1rbdI-15">
          <mxGeometry width="50" height="50" relative="1" as="geometry">
            <mxPoint x="650" y="170" as="sourcePoint" />
            <mxPoint x="740" y="240" as="targetPoint" />
          </mxGeometry>
        </mxCell>
        <mxCell id="klf8gY02cnG4Vqw1rbdI-40" value="" style="endArrow=none;html=1;entryX=0;entryY=0.5;entryDx=0;entryDy=0;exitX=1;exitY=0.3333333333333333;exitDx=0;exitDy=0;exitPerimeter=0;" edge="1" parent="1" source="klf8gY02cnG4Vqw1rbdI-13" target="klf8gY02cnG4Vqw1rbdI-35">
          <mxGeometry width="50" height="50" relative="1" as="geometry">
            <mxPoint x="660" y="180" as="sourcePoint" />
            <mxPoint x="750" y="250" as="targetPoint" />
          </mxGeometry>
        </mxCell>
        <mxCell id="klf8gY02cnG4Vqw1rbdI-41" value="" style="endArrow=none;html=1;exitX=1;exitY=0.5;exitDx=0;exitDy=0;entryX=0;entryY=0.3333333333333333;entryDx=0;entryDy=0;entryPerimeter=0;" edge="1" parent="1" source="klf8gY02cnG4Vqw1rbdI-18" target="klf8gY02cnG4Vqw1rbdI-4">
          <mxGeometry width="50" height="50" relative="1" as="geometry">
            <mxPoint x="390" y="260" as="sourcePoint" />
            <mxPoint x="440" y="210" as="targetPoint" />
          </mxGeometry>
        </mxCell>
        <mxCell id="klf8gY02cnG4Vqw1rbdI-43" value="" style="endArrow=none;html=1;exitX=1;exitY=0.5;exitDx=0;exitDy=0;entryX=0;entryY=0.3333333333333333;entryDx=0;entryDy=0;entryPerimeter=0;" edge="1" parent="1" source="klf8gY02cnG4Vqw1rbdI-28" target="klf8gY02cnG4Vqw1rbdI-25">
          <mxGeometry width="50" height="50" relative="1" as="geometry">
            <mxPoint x="390" y="260" as="sourcePoint" />
            <mxPoint x="440" y="210" as="targetPoint" />
          </mxGeometry>
        </mxCell>
        <mxCell id="klf8gY02cnG4Vqw1rbdI-44" value="" style="endArrow=none;html=1;exitX=1;exitY=0.5;exitDx=0;exitDy=0;entryX=0;entryY=0.3333333333333333;entryDx=0;entryDy=0;entryPerimeter=0;" edge="1" parent="1" source="klf8gY02cnG4Vqw1rbdI-20" target="klf8gY02cnG4Vqw1rbdI-4">
          <mxGeometry width="50" height="50" relative="1" as="geometry">
            <mxPoint x="610" y="130" as="sourcePoint" />
            <mxPoint x="720" y="85" as="targetPoint" />
            <Array as="points" />
          </mxGeometry>
        </mxCell>
        <mxCell id="klf8gY02cnG4Vqw1rbdI-45" value="" style="endArrow=none;html=1;exitX=1;exitY=0.5;exitDx=0;exitDy=0;entryX=0;entryY=0.25;entryDx=0;entryDy=0;entryPerimeter=0;" edge="1" parent="1" source="klf8gY02cnG4Vqw1rbdI-9" target="klf8gY02cnG4Vqw1rbdI-4">
          <mxGeometry width="50" height="50" relative="1" as="geometry">
            <mxPoint x="390" y="260" as="sourcePoint" />
            <mxPoint x="710" y="80" as="targetPoint" />
          </mxGeometry>
        </mxCell>
        <mxCell id="klf8gY02cnG4Vqw1rbdI-49" value="Software Succes AG" style="rounded=0;whiteSpace=wrap;html=1;fillColor=none;" vertex="1" parent="1">
          <mxGeometry x="510" y="10" width="130" height="30" as="geometry" />
        </mxCell>
      </root>
    </mxGraphModel>
  </diagram>
</mxfile>
